<svg xmlns="http://www.w3.org/2000/svg" width="64" height="64" viewBox="0 0 64 64">
  <defs>
    <linearGradient id="c" x1="0" y1="0" x2="0" y2="1"><stop offset="0" stop-color="#ffe28c"/><stop offset="1" stop-color="#e3a531"/></linearGradient>
    <linearGradient id="b" x1="0" y1="0" x2="0" y2="1"><stop offset="0" stop-color="#f8d262"/><stop offset="1" stop-color="#c7861f"/></linearGradient>
  </defs>
  <rect x="0" y="0" width="64" height="64" rx="14" fill="#0a111e"/><rect x="1" y="1" width="62" height="62" rx="13" fill="none" stroke="#26385a" stroke-width="1.2"/>
  <g transform="translate(5.5 3) scale(0.83)">
    <ellipse cx="32" cy="41" rx="29" ry="11" fill="url(#b)" stroke="#7d520e" stroke-width="1.6"/>
    <path d="M9 45.5 C19 50 45 50 55 45.5" stroke="#7d520e" stroke-width="1" fill="none" opacity="0.45"/>
    <path d="M15 40 C15 12.5 49 12.5 49 40 Z" fill="url(#c)" stroke="#7d520e" stroke-width="1.6"/>
    <path d="M15.3 33 C24 37.4 40 37.4 48.7 33 L49 40 C40 44.2 24 44.2 15 40 Z" fill="#d92b33" stroke="#6e1016" stroke-width="1.2"/>
    <path d="M23 26 C28 22.6 36 22.6 41 26" stroke="#fff6cf" stroke-width="1.6" fill="none" opacity="0.75" stroke-linecap="round"/>
  </g></svg>